<svg width="25" height="25" viewBox="0 0 25 25" fill="none" xmlns="http://www.w3.org/2000/svg"><path d="M16.8945 14.6973C17.299 14.6973 17.627 14.3693 17.627 13.9648C17.627 13.5603 17.299 13.2324 16.8945 13.2324C16.49 13.2324 16.1621 13.5603 16.1621 13.9648C16.1621 14.3693 16.49 14.6973 16.8945 14.6973Z" fill="#BFBFBF"></path><path d="M11.0352 13.2324C11.4397 13.2324 11.7676 12.9045 11.7676 12.5C11.7676 12.0955 11.4397 11.7676 11.0352 11.7676C10.6307 11.7676 10.3027 12.0955 10.3027 12.5C10.3027 12.9045 10.6307 13.2324 11.0352 13.2324Z" fill="#BFBFBF"></path><path d="M12.5 4.44336C12.9045 4.44336 13.2324 4.11544 13.2324 3.71094C13.2324 3.30643 12.9045 2.97852 12.5 2.97852C12.0955 2.97852 11.7676 3.30643 11.7676 3.71094C11.7676 4.11544 12.0955 4.44336 12.5 4.44336Z" fill="#BFBFBF"></path><path d="M3.71094 19.0918C4.11544 19.0918 4.44336 18.7639 4.44336 18.3594C4.44336 17.9549 4.11544 17.627 3.71094 17.627C3.30643 17.627 2.97852 17.9549 2.97852 18.3594C2.97852 18.7639 3.30643 19.0918 3.71094 19.0918Z" fill="#BFBFBF"></path><path d="M24.8831 3.31386C24.8786 3.30893 24.7732 3.1229 24.5358 3.02934C24.1352 2.90957 17.9308 0 9.57036 0C9.32363 0 9.0935 0.12417 8.9581 0.33042L6.84106 3.55483C6.62031 3.89106 6.71201 4.34243 7.04648 4.56587C7.25097 4.70249 7.37309 4.93051 7.37309 5.17578C7.37309 5.57963 7.04453 5.9082 6.64067 5.9082C6.49516 5.9082 6.35483 5.86586 6.23491 5.78574C5.89931 5.56157 5.44575 5.65107 5.22046 5.98579L0.124905 13.5558C0.124807 13.556 0.124661 13.5561 0.124563 13.5563C0.124417 13.5565 0.12427 13.5567 0.124124 13.557C0.123928 13.5573 0.123733 13.5576 0.123538 13.5578C0.123391 13.558 0.123294 13.5582 0.123196 13.5584C0.122952 13.5587 0.122757 13.559 0.122512 13.5594C0.122464 13.5595 0.122415 13.5595 0.122366 13.5596C0.0400907 13.6834 -0.000387825 13.8253 2.80007e-06 13.9666V24.2676C2.80007e-06 24.515 0.124954 24.7457 0.332131 24.8809C0.539651 25.0164 0.801174 25.0375 1.0273 24.938L12.9532 19.693C13.3375 19.524 13.5021 19.066 13.3112 18.6905C13.2589 18.5877 13.2324 18.4764 13.2324 18.3594C13.2324 17.9556 13.561 17.627 13.9648 17.627C14.2698 17.627 14.5459 17.819 14.6519 18.1047C14.7978 18.498 15.2449 18.6895 15.6308 18.5215L24.5597 14.6365C24.8271 14.5202 25 14.2563 25 13.9648V3.71093C25 3.49663 24.9071 3.36416 24.8831 3.31386ZM6.09795 7.30541C6.27392 7.35014 6.45605 7.37304 6.64067 7.37304C7.85224 7.37304 8.83793 6.38735 8.83793 5.17578C8.83793 4.69155 8.67953 4.22998 8.39672 3.85439L9.9642 1.46704C14.1 1.51396 18.347 2.29868 22.3416 3.75019L15.6277 6.67148C15.2244 6.20458 14.6288 5.9082 13.9649 5.9082C12.7533 5.9082 11.7676 6.89389 11.7676 8.10546C11.7676 8.18871 11.7727 8.27074 11.7818 8.35165L2.74272 12.29L6.09795 7.30541ZM14.6973 8.10546C14.6973 8.50932 14.3687 8.83788 13.9649 8.83788C13.561 8.83788 13.2325 8.50932 13.2325 8.10546C13.2325 7.7016 13.561 7.37304 13.9649 7.37304C14.3687 7.37304 14.6973 7.7016 14.6973 8.10546ZM23.5352 13.4848L15.6283 16.9251C15.2178 16.4514 14.613 16.1621 13.9649 16.1621C12.7533 16.1621 11.7676 17.1478 11.7676 18.3594C11.7676 18.4425 11.7724 18.5254 11.7818 18.6079L1.46489 23.1453V14.4447L12.4238 9.66977C12.8207 10.0608 13.365 10.3027 13.9649 10.3027C15.1765 10.3027 16.1621 9.31703 16.1621 8.10546C16.1621 8.08256 16.1611 8.05991 16.1604 8.0372L23.5352 4.82836V13.4848Z" fill="#BFBFBF"></path><path d="M8.10547 13.2324C6.8939 13.2324 5.9082 14.2181 5.9082 15.4297C5.9082 16.6413 6.8939 17.6269 8.10547 17.6269C9.31704 17.6269 10.3027 16.6413 10.3027 15.4297C10.3027 14.2181 9.31709 13.2324 8.10547 13.2324ZM8.10547 16.1621C7.70161 16.1621 7.37305 15.8335 7.37305 15.4297C7.37305 15.0258 7.70161 14.6973 8.10547 14.6973C8.50932 14.6973 8.83789 15.0258 8.83789 15.4297C8.83789 15.8335 8.50937 16.1621 8.10547 16.1621Z" fill="#BFBFBF"></path><path d="M19.8242 7.37305C18.6126 7.37305 17.627 8.35874 17.627 9.57031C17.627 10.7819 18.6126 11.7676 19.8242 11.7676C21.0358 11.7676 22.0215 10.7819 22.0215 9.57031C22.0215 8.35874 21.0358 7.37305 19.8242 7.37305ZM19.8242 10.3027C19.4204 10.3027 19.0918 9.97417 19.0918 9.57031C19.0918 9.16645 19.4204 8.83789 19.8242 8.83789C20.2281 8.83789 20.5566 9.16645 20.5566 9.57031C20.5566 9.97417 20.2281 10.3027 19.8242 10.3027Z" fill="#BFBFBF"></path></svg>